REM DIRINDEX 1\2,1\3,1\4
REM DIRNAME cjc151,folder01,folder02,folder03
TITLE ""
FILE "130 130_TOEFL_3900.mp3" MP3
  TRACK 01 AUDIO
    TITLE "2:cjc151_5646"
    INDEX 01 00:00:00
  TRACK 02 AUDIO
    TITLE "0:"
    INDEX 01 00:01:21
  TRACK 03 AUDIO
    TITLE "3:cjc151_5647"
    INDEX 01 00:03:00
  TRACK 04 AUDIO
    TITLE "0:"
    INDEX 01 00:07:21
  TRACK 05 AUDIO
    TITLE "2:cjc151_5648"
    INDEX 01 00:08:72
  TRACK 06 AUDIO
    TITLE "0:"
    INDEX 01 00:10:06
  TRACK 07 AUDIO
    TITLE "3:cjc151_5649"
    INDEX 01 00:11:56
  TRACK 08 AUDIO
    TITLE "0:"
    INDEX 01 00:16:44
  TRACK 09 AUDIO
    TITLE "2:cjc151_5650"
    INDEX 01 00:18:21
  TRACK 10 AUDIO
    TITLE "0:"
    INDEX 01 00:19:40
  TRACK 11 AUDIO
    TITLE "3:cjc151_5651"
    INDEX 01 00:21:17
  TRACK 12 AUDIO
    TITLE "0:"
    INDEX 01 00:25:23
  TRACK 13 AUDIO
    TITLE "2:cjc151_5652"
    INDEX 01 00:27:02
  TRACK 14 AUDIO
    TITLE "0:"
    INDEX 01 00:28:12
  TRACK 15 AUDIO
    TITLE "3:cjc151_5653"
    INDEX 01 00:29:62
  TRACK 16 AUDIO
    TITLE "0:"
    INDEX 01 00:33:62
  TRACK 17 AUDIO
    TITLE "2:cjc151_5654"
    INDEX 01 00:35:39
  TRACK 18 AUDIO
    TITLE "0:"
    INDEX 01 00:36:58
  TRACK 19 AUDIO
    TITLE "3:cjc151_5655"
    INDEX 01 00:38:37
  TRACK 20 AUDIO
    TITLE "0:"
    INDEX 01 00:42:49
  TRACK 21 AUDIO
    TITLE "2:cjc151_5656"
    INDEX 01 00:44:26
  TRACK 22 AUDIO
    TITLE "0:"
    INDEX 01 00:45:41
  TRACK 23 AUDIO
    TITLE "3:cjc151_5657"
    INDEX 01 00:47:21
  TRACK 24 AUDIO
    TITLE "0:"
    INDEX 01 00:51:09
  TRACK 25 AUDIO
    TITLE "2:cjc151_5658"
    INDEX 01 00:52:61
  TRACK 26 AUDIO
    TITLE "0:"
    INDEX 01 00:54:01
  TRACK 27 AUDIO
    TITLE "3:cjc151_5659"
    INDEX 01 00:55:53
  TRACK 28 AUDIO
    TITLE "0:"
    INDEX 01 00:59:43
  TRACK 29 AUDIO
    TITLE "2:cjc151_5660"
    INDEX 01 01:01:23
  TRACK 30 AUDIO
    TITLE "0:"
    INDEX 01 01:02:44
  TRACK 31 AUDIO
    TITLE "3:cjc151_5661"
    INDEX 01 01:04:23
  TRACK 32 AUDIO
    TITLE "0:"
    INDEX 01 01:09:40
  TRACK 33 AUDIO
    TITLE "2:cjc151_5662"
    INDEX 01 01:11:19
  TRACK 34 AUDIO
    TITLE "0:"
    INDEX 01 01:12:28
  TRACK 35 AUDIO
    TITLE "3:cjc151_5663"
    INDEX 01 01:14:08
  TRACK 36 AUDIO
    TITLE "0:"
    INDEX 01 01:17:59
  TRACK 37 AUDIO
    TITLE "2:cjc151_5664"
    INDEX 01 01:19:40
  TRACK 38 AUDIO
    TITLE "0:"
    INDEX 01 01:20:51
  TRACK 39 AUDIO
    TITLE "3:cjc151_5665"
    INDEX 01 01:22:33
  TRACK 40 AUDIO
    TITLE "0:"
    INDEX 01 01:26:58
  TRACK 41 AUDIO
    TITLE "2:cjc151_5666"
    INDEX 01 01:28:37
  TRACK 42 AUDIO
    TITLE "0:"
    INDEX 01 01:29:33
  TRACK 43 AUDIO
    TITLE "3:cjc151_5667"
    INDEX 01 01:31:12
  TRACK 44 AUDIO
    TITLE "0:"
    INDEX 01 01:34:69
  TRACK 45 AUDIO
    TITLE "2:cjc151_5668"
    INDEX 01 01:36:47
  TRACK 46 AUDIO
    TITLE "0:"
    INDEX 01 01:37:68
  TRACK 47 AUDIO
    TITLE "3:cjc151_5669"
    INDEX 01 01:39:47
  TRACK 48 AUDIO
    TITLE "0:"
    INDEX 01 01:44:01
  TRACK 49 AUDIO
    TITLE "2:cjc151_5670"
    INDEX 01 01:45:55
  TRACK 50 AUDIO
    TITLE "0:"
    INDEX 01 01:46:66
  TRACK 51 AUDIO
    TITLE "3:cjc151_5671"
    INDEX 01 01:48:50
  TRACK 52 AUDIO
    TITLE "0:"
    INDEX 01 01:52:48
  TRACK 53 AUDIO
    TITLE "2:cjc151_5672"
    INDEX 01 01:54:25
  TRACK 54 AUDIO
    TITLE "0:"
    INDEX 01 01:55:46
  TRACK 55 AUDIO
    TITLE "3:cjc151_5673"
    INDEX 01 01:57:25
  TRACK 56 AUDIO
    TITLE "0:"
    INDEX 01 02:01:60
  TRACK 57 AUDIO
    TITLE "2:cjc151_5674"
    INDEX 01 02:03:38
  TRACK 58 AUDIO
    TITLE "0:"
    INDEX 01 02:04:59
  TRACK 59 AUDIO
    TITLE "3:cjc151_5675"
    INDEX 01 02:06:36
  TRACK 60 AUDIO
    TITLE "0:"
    INDEX 01 02:11:04
  TRACK 61 AUDIO
    TITLE "2:cjc151_5676"
    INDEX 01 02:12:56
  TRACK 62 AUDIO
    TITLE "0:"
    INDEX 01 02:13:71
  TRACK 63 AUDIO
    TITLE "3:cjc151_5677"
    INDEX 01 02:15:51
  TRACK 64 AUDIO
    TITLE "0:"
    INDEX 01 02:19:29
  TRACK 65 AUDIO
    TITLE "2:cjc151_5678"
    INDEX 01 02:21:06
  TRACK 66 AUDIO
    TITLE "0:"
    INDEX 01 02:22:25
  TRACK 67 AUDIO
    TITLE "3:cjc151_5679"
    INDEX 01 02:24:04
  TRACK 68 AUDIO
    TITLE "0:"
    INDEX 01 02:28:32
  TRACK 69 AUDIO
    TITLE "2:cjc151_5680"
    INDEX 01 02:30:09
  TRACK 70 AUDIO
    TITLE "0:"
    INDEX 01 02:31:34
  TRACK 71 AUDIO
    TITLE "3:cjc151_5681"
    INDEX 01 02:33:11
  TRACK 72 AUDIO
    TITLE "0:"
    INDEX 01 02:36:51
  TRACK 73 AUDIO
    TITLE "2:cjc151_5682"
    INDEX 01 02:38:30
  TRACK 74 AUDIO
    TITLE "0:"
    INDEX 01 02:39:53
  TRACK 75 AUDIO
    TITLE "3:cjc151_5683"
    INDEX 01 02:41:32
  TRACK 76 AUDIO
    TITLE "0:"
    INDEX 01 02:47:39
  TRACK 77 AUDIO
    TITLE "2:cjc151_5684"
    INDEX 01 02:49:18
  TRACK 78 AUDIO
    TITLE "0:"
    INDEX 01 02:50:18
  TRACK 79 AUDIO
    TITLE "3:cjc151_5685"
    INDEX 01 02:51:70
  TRACK 80 AUDIO
    TITLE "0:"
    INDEX 01 02:56:04
  TRACK 81 AUDIO
    TITLE "2:cjc151_5686"
    INDEX 01 02:57:61
  TRACK 82 AUDIO
    TITLE "0:"
    INDEX 01 02:58:62
  TRACK 83 AUDIO
    TITLE "3:cjc151_5687"
    INDEX 01 03:00:39
  TRACK 84 AUDIO
    TITLE "0:"
    INDEX 01 03:04:55
  TRACK 85 AUDIO
    TITLE "2:cjc151_5688"
    INDEX 01 03:06:32
  TRACK 86 AUDIO
    TITLE "0:"
    INDEX 01 03:07:51
  TRACK 87 AUDIO
    TITLE "3:cjc151_5689"
    INDEX 01 03:09:29
  TRACK 88 AUDIO
    TITLE "0:"
    INDEX 01 03:14:24
